<?xml version="1.0" encoding="UTF-8"?>
<svg id="Layer_1" data-name="Layer 1" xmlns="http://www.w3.org/2000/svg" viewBox="0 0 1784.94 666.2">
  <defs>
    <style>
      .cls-1, .cls-2 {
        fill: #A659FF;
      }

      .cls-2 {
        fill-rule: evenodd;
      }
    </style>
  </defs>
  <g>
    <path class="cls-1" d="M1364.28,57.87l200.99,178.65c37.57,33.4,56.36,50.1,63.28,69.82,6.08,17.32,6.08,36.19,0,53.5-6.93,19.72-25.72,36.41-63.28,69.82l-200.99,178.65c-17.06,15.15-25.58,22.74-32.81,23-6.29.24-12.33-2.47-16.34-7.33-4.6-5.6-4.6-17.01-4.6-39.82v-112.65c-98.04,0-201.58,31.48-277.19,87.38-39.37,29.1-59.05,43.66-66.54,43.07-7.3-.56-11.94-3.42-15.73-9.68-3.89-6.43-.45-26.54,6.42-66.74,44.61-261.08,224.28-330.9,353.06-330.9v-112.65c0-22.81,0-34.22,4.6-39.82,4-4.86,10.04-7.57,16.34-7.34,7.24.27,15.77,7.85,32.81,23h-.01Z"/>
    <path class="cls-2" d="M1471.57,9.68c11.37-12.26,30.54-12.96,42.8-1.59l210.61,195.56c38.23,35.5,59.96,85.32,59.96,137.49,0,55-24.13,107.24-66.02,142.88l-205.53,174.95c-12.73,10.84-31.84,9.3-42.69-3.43-10.84-12.73-9.3-31.84,3.43-42.69l205.53-174.95c28.37-24.14,44.71-59.51,44.71-96.77,0-35.33-14.72-69.07-40.6-93.11l-210.61-195.56c-12.26-11.39-12.96-30.54-1.59-42.8h0Z"/>
  </g>
  <g>
    <path class="cls-1" d="M420.66,57.87l-200.99,178.65c-37.57,33.4-56.36,50.1-63.28,69.82-6.08,17.32-6.08,36.19,0,53.5,6.93,19.72,25.72,36.41,63.28,69.82l200.99,178.65c17.06,15.15,25.58,22.74,32.81,23,6.29.24,12.33-2.47,16.34-7.33,4.6-5.6,4.6-17.01,4.6-39.82v-112.65c98.04,0,201.58,31.48,277.19,87.38,39.37,29.1,59.05,43.66,66.54,43.07,7.3-.56,11.94-3.42,15.73-9.68,3.89-6.43.45-26.54-6.42-66.74-44.61-261.08-224.28-330.9-353.06-330.9v-112.65c0-22.81,0-34.22-4.6-39.82-4-4.86-10.04-7.57-16.34-7.34-7.24.27-15.77,7.85-32.81,23h.01Z"/>
    <path class="cls-2" d="M313.36,9.68c-11.37-12.26-30.54-12.96-42.8-1.59L59.96,203.65C21.73,239.16,0,288.98,0,341.15c0,55,24.13,107.24,66.02,142.88l205.53,174.95c12.73,10.84,31.84,9.3,42.69-3.43,10.84-12.73,9.3-31.84-3.43-42.69l-205.53-174.95c-28.37-24.14-44.71-59.51-44.71-96.77,0-35.33,14.72-69.07,40.6-93.11L311.77,52.47c12.26-11.39,12.96-30.54,1.59-42.8h0Z"/>
  </g>
</svg>