<svg width="657" height="657" viewBox="0 0 657 657" fill="none" xmlns="http://www.w3.org/2000/svg">
<path d="M260.062 547.5V602.25C260.062 613.589 269.255 622.781 280.594 622.781C291.932 622.781 301.125 613.589 301.125 602.25V547.5H260.062Z" fill="#A659FF"/>
<path d="M410.625 547.5H369.562V602.25C369.562 613.589 378.755 622.781 390.094 622.781C401.432 622.781 410.625 613.589 410.625 602.25V547.5Z" fill="#A659FF"/>
<path fill-rule="evenodd" clip-rule="evenodd" d="M475.903 180.256L482.914 178.853C494.294 176.575 506.062 177.662 516.878 181.993C535.775 189.559 556.441 190.972 576.129 186.045L577.812 185.624C592.146 182.037 602.25 168.712 602.25 153.392V95.069C602.25 74.8714 584.068 59.9909 565.168 64.7202C554.316 67.4361 542.926 66.657 532.507 62.4864L530.508 61.6855C513.068 54.7029 494.094 52.949 475.742 56.6227L463.459 59.0818C448.679 62.0405 438 75.4789 438 91.1166V281.434C438 292.31 446.486 301.125 456.952 301.125C467.42 301.125 475.903 292.31 475.903 281.434V180.256Z" fill="#A659FF"/>
<path d="M396.938 164.25V281.434C396.938 313.493 422.342 342.188 456.952 342.188C491.562 342.188 516.966 313.493 516.966 281.434V225.24C537.796 230.863 559.671 231.52 580.898 227.075C594.372 250.117 602.25 277.968 602.25 307.969V477.018C602.25 515.945 575.201 547.5 541.836 547.5H342.188V307.969C342.188 252.401 319.409 199.182 281.486 164.25H396.938Z" fill="#A659FF"/>
<path fill-rule="evenodd" clip-rule="evenodd" d="M54.75 307.969C54.75 228.595 109.903 164.25 177.938 164.25C245.972 164.25 301.125 228.595 301.125 307.969V547.5H115.866C82.1127 547.5 54.75 515.578 54.75 476.196V307.969ZM116.344 438C116.344 426.661 125.536 417.469 136.875 417.469H219C230.339 417.469 239.531 426.661 239.531 438C239.531 449.339 230.339 458.531 219 458.531H136.875C125.536 458.531 116.344 449.339 116.344 438Z" fill="#A659FF"/>
</svg>
