<svg width="583" height="583" viewBox="0 0 583 583" fill="none" xmlns="http://www.w3.org/2000/svg">
<path d="M303.044 125.917L182.122 233.4C159.516 253.492 148.214 263.541 144.052 275.405C140.394 285.827 140.394 297.18 144.052 307.594C148.221 319.458 159.524 329.5 182.122 349.599L303.044 457.083C313.305 466.199 318.435 470.761 322.786 470.922C326.568 471.067 330.204 469.435 332.616 466.513C335.386 463.146 335.386 456.281 335.386 442.559V374.785C394.371 374.785 456.664 393.725 502.153 427.357C525.837 444.862 537.679 453.621 542.183 453.271C546.577 452.936 549.369 451.216 551.65 447.449C553.989 443.579 551.919 431.482 547.787 407.295C520.947 250.22 412.852 208.215 335.378 208.215V140.441C335.378 126.719 335.378 119.854 332.609 116.487C330.204 113.565 326.568 111.932 322.778 112.071C318.42 112.231 313.29 116.793 303.036 125.91L303.044 125.917Z" fill="#A659FF"/>
<path fill-rule="evenodd" clip-rule="evenodd" d="M238.491 96.9153C231.648 89.5404 220.119 89.1177 212.744 95.9606L86.036 213.617C63.0367 234.977 49.9629 264.95 49.9629 296.338C49.9629 329.43 64.4796 360.854 89.6798 382.301L213.334 487.554C220.993 494.077 232.493 493.151 239.015 485.492C245.538 477.833 244.612 466.333 236.953 459.811L113.299 354.558C96.2312 340.034 86.4004 318.754 86.4004 296.338C86.4004 275.08 95.2547 254.784 110.828 240.319L237.536 122.662C244.911 115.812 245.333 104.29 238.491 96.9153Z" fill="#A659FF"/>
</svg>
