<svg width="643" height="643" viewBox="0 0 643 643" fill="none" xmlns="http://www.w3.org/2000/svg">
<path fill-rule="evenodd" clip-rule="evenodd" d="M350.615 573.015L365.139 548.476C376.402 529.443 382.036 519.927 391.084 514.665C400.132 509.403 411.521 509.208 434.304 508.817C467.939 508.235 489.032 506.175 506.722 498.847C539.547 485.251 565.624 459.174 579.22 426.349C589.417 401.733 589.417 370.523 589.417 308.107V281.315C589.417 193.614 589.417 149.764 569.677 117.551C558.631 99.5264 543.478 84.3717 525.452 73.326C493.238 53.5859 449.388 53.5859 361.688 53.5859H281.313C193.613 53.5859 149.762 53.5859 117.549 73.326C99.5245 84.3717 84.3698 99.5264 73.3241 117.551C53.584 149.764 53.584 193.614 53.584 281.315V308.107C53.584 370.523 53.584 401.733 63.7809 426.349C77.3769 459.174 103.455 485.251 136.279 498.847C153.969 506.175 175.063 508.235 208.696 508.817C231.479 509.208 242.87 509.403 251.917 514.665C260.965 519.93 266.597 529.443 277.862 548.476L292.386 573.015C305.332 594.885 337.669 594.885 350.615 573.015ZM428.667 321.503C443.464 321.503 455.459 309.508 455.459 294.711C455.459 279.914 443.464 267.919 428.667 267.919C413.87 267.919 401.876 279.914 401.876 294.711C401.876 309.508 413.87 321.503 428.667 321.503ZM348.292 294.711C348.292 309.508 336.298 321.503 321.501 321.503C306.704 321.503 294.709 309.508 294.709 294.711C294.709 279.914 306.704 267.919 321.501 267.919C336.298 267.919 348.292 279.914 348.292 294.711ZM214.334 321.503C229.13 321.503 241.126 309.508 241.126 294.711C241.126 279.914 229.13 267.919 214.334 267.919C199.537 267.919 187.542 279.914 187.542 294.711C187.542 309.508 199.537 321.503 214.334 321.503Z" fill="#A659FF"/>
</svg>
