<svg width="583" height="583" viewBox="0 0 583 583" fill="none" xmlns="http://www.w3.org/2000/svg">
<path d="M299.553 125.917L420.474 233.4C443.08 253.492 454.383 263.541 458.544 275.405C462.202 285.827 462.202 297.18 458.544 307.594C454.376 319.458 443.073 329.5 420.474 349.599L299.553 457.083C289.292 466.199 284.161 470.761 279.811 470.922C276.029 471.067 272.392 469.435 269.98 466.513C267.211 463.146 267.211 456.281 267.211 442.559V374.785C208.226 374.785 145.932 393.725 100.444 427.357C76.7592 444.862 64.9171 453.621 60.4134 453.271C56.019 452.936 53.2279 451.216 50.9469 447.449C48.6076 443.579 50.6773 431.482 54.8093 407.295C81.6492 250.22 189.745 208.215 267.218 208.215V140.441C267.218 126.719 267.218 119.854 269.987 116.487C272.392 113.565 276.029 111.932 279.818 112.071C284.176 112.231 289.306 116.793 299.56 125.91L299.553 125.917Z" fill="#A659FF"/>
<path fill-rule="evenodd" clip-rule="evenodd" d="M364.105 96.9153C370.948 89.5404 382.477 89.1177 389.852 95.9606L516.559 213.617C539.559 234.977 552.632 264.95 552.632 296.338C552.632 329.43 538.116 360.854 512.916 382.301L389.261 487.554C381.602 494.077 370.102 493.151 363.58 485.492C357.058 477.833 357.983 466.333 365.643 459.811L489.297 354.558C506.364 340.034 516.195 318.754 516.195 296.338C516.195 275.08 507.341 254.784 491.767 240.319L365.06 122.662C357.685 115.812 357.262 104.29 364.105 96.9153Z" fill="#A659FF"/>
</svg>
