<svg id="be74fbbc-8780-4e17-bae0-2f3fae8a7eac" data-name="Capa 1" xmlns="http://www.w3.org/2000/svg" viewBox="0 0 120 250"><defs><style>.ef956e3c-d684-4526-bd69-7c423bceb266{fill:#a659ff;}.b75aa935-fd3d-4cdc-aae8-e08f8dc0660f{fill:#56258f;}</style></defs><path class="ef956e3c-d684-4526-bd69-7c423bceb266" d="M66.36,196.5a32.55,32.55,0,0,0,2.8-8.31c3.59-18.34-9.14-36.1-27.54-39.35L14.5,144.06a15.56,15.56,0,0,1-9.8-24.59l48.94-66a32.55,32.55,0,0,0-2.8,8.31C47.25,80.15,60,97.91,78.38,101.16l27.12,4.78a15.56,15.56,0,0,1,9.8,24.59Z"/><path class="b75aa935-fd3d-4cdc-aae8-e08f8dc0660f" d="M94.11,8.35l-16.35,92.7A33.33,33.33,0,0,1,53.64,53.5l7.13-9.62,28-37.81C92.92.53,95.31,1.55,94.11,8.35Z"/><path class="b75aa935-fd3d-4cdc-aae8-e08f8dc0660f" d="M69.28,187.57a33.19,33.19,0,0,1-2.92,8.93l-7.13,9.62-28,37.81c-4.11,5.54-6.5,4.52-5.3-2.28L42.24,149A33.34,33.34,0,0,1,69.28,187.57Z"/></svg>